g OBJ_BookHardcover
v -0.1117931 0.005593201 0.1749468
v 0.1189208 0.02172519 0.1749468
v 0.1154448 0.005593201 0.1749468
v -0.1168069 0.011135 0.1749468
v -0.1168069 0.03231539 0.1749468
v 0.1154448 0.0387832 0.1749468
v -0.1117931 0.0387832 0.1749468
v -0.1168069 0.011135 -0.1749468
v 0.1154448 0.005593201 -0.1749468
v 0.1189208 0.02172519 -0.1749468
v -0.1117931 0.005593201 -0.1749468
v -0.1168069 0.03231539 -0.1749468
v -0.1117931 0.0387832 -0.1749468
v 0.1154448 0.0387832 -0.1749468
v 0.1154448 0.005593201 0.1749468
v 0.1189208 0.02172519 -0.1749468
v 0.1154448 0.005593201 -0.1749468
v 0.1189208 0.02172519 0.1749468
v 0.1189208 0.02172519 0.1749468
v 0.1154448 0.0387832 -0.1749468
v 0.1189208 0.02172519 -0.1749468
v 0.1154448 0.0387832 0.1749468
v -0.1179024 0.04437639 0.1806139
v 0.1229162 0.04437639 -0.1806139
v 0.1229162 0.04437639 0.1806139
v -0.1179024 0.04437639 -0.1806139
v -0.1179024 0 -0.1806139
v 0.1229162 0 0.1806139
v 0.1229162 0 -0.1806139
v -0.1179024 0 0.1806139
v -0.1179024 0 -0.1806139
v -0.1229162 0.007409615 0.1806139
v -0.1179024 0 0.1806139
v -0.1229162 0.007409615 -0.1806139
v -0.1179024 0 0.1806139
v 0.1229162 0.005593201 0.1806139
v 0.1229162 0 0.1806139
v -0.1117931 0.005593201 0.1806139
v 0.1229162 0.04437639 0.1806139
v -0.1117931 0.0387832 0.1806139
v -0.1179024 0.04437639 0.1806139
v 0.1229162 0.0387832 0.1806139
v -0.1168069 0.011135 0.1806139
v -0.1179024 0 0.1806139
v -0.1229162 0.007409615 0.1806139
v -0.1179024 0 0.1806139
v -0.1168069 0.011135 0.1806139
v -0.1117931 0.005593201 0.1806139
v -0.1179024 0.04437639 -0.1806139
v 0.1229162 0.0387832 -0.1806139
v 0.1229162 0.04437639 -0.1806139
v -0.1117931 0.0387832 -0.1806139
v 0.1229162 0 -0.1806139
v -0.1117931 0.005593201 -0.1806139
v -0.1179024 0 -0.1806139
v 0.1229162 0.005593201 -0.1806139
v -0.1179024 0 -0.1806139
v -0.1168069 0.011135 -0.1806139
v -0.1229162 0.007409615 -0.1806139
v -0.1168069 0.011135 -0.1806139
v -0.1179024 0 -0.1806139
v -0.1117931 0.005593201 -0.1806139
v 0.1229162 0 0.1806139
v 0.1229162 0.005593201 -0.1806139
v 0.1229162 0 -0.1806139
v 0.1229162 0.005593201 0.1806139
v 0.1229162 0.04437639 -0.1806139
v 0.1229162 0.0387832 0.1806139
v 0.1229162 0.04437639 0.1806139
v 0.1229162 0.0387832 -0.1806139
v -0.1117931 0.005593201 0.1806139
v 0.1154448 0.005593201 0.1749468
v 0.1229162 0.005593201 0.1806139
v -0.1117931 0.005593201 0.1749468
v 0.1229162 0.0387832 0.1806139
v -0.1117931 0.0387832 0.1749468
v -0.1117931 0.0387832 0.1806139
v 0.1154448 0.0387832 0.1749468
v -0.1168069 0.011135 0.1806139
v -0.1117931 0.005593201 0.1749468
v -0.1117931 0.005593201 0.1806139
v -0.1168069 0.011135 0.1749468
v -0.1117931 0.0387832 -0.1806139
v 0.1154448 0.0387832 -0.1749468
v 0.1229162 0.0387832 -0.1806139
v -0.1117931 0.0387832 -0.1749468
v 0.1229162 0.005593201 -0.1806139
v -0.1117931 0.005593201 -0.1749468
v -0.1117931 0.005593201 -0.1806139
v 0.1154448 0.005593201 -0.1749468
v -0.1117931 0.005593201 -0.1806139
v -0.1168069 0.011135 -0.1749468
v -0.1168069 0.011135 -0.1806139
v -0.1117931 0.005593201 -0.1749468
v 0.1229162 0.005593201 0.1806139
v 0.1154448 0.005593201 -0.1749468
v 0.1229162 0.005593201 -0.1806139
v 0.1154448 0.005593201 0.1749468
v 0.1229162 0.0387832 -0.1806139
v 0.1154448 0.0387832 0.1749468
v 0.1229162 0.0387832 0.1806139
v 0.1154448 0.0387832 -0.1749468
v -0.1229162 0.03572867 -0.1806139
v -0.1179024 0.04437639 0.1806139
v -0.1229162 0.03572867 0.1806139
v -0.1179024 0.04437639 -0.1806139
v -0.1168069 0.03231539 -0.1806139
v -0.1179024 0.04437639 -0.1806139
v -0.1229162 0.03572867 -0.1806139
v -0.1179024 0.04437639 -0.1806139
v -0.1168069 0.03231539 -0.1806139
v -0.1117931 0.0387832 -0.1806139
v -0.1168069 0.03231539 -0.1749468
v -0.1117931 0.0387832 -0.1806139
v -0.1168069 0.03231539 -0.1806139
v -0.1117931 0.0387832 -0.1749468
v -0.1117931 0.0387832 0.1806139
v -0.1168069 0.03231539 0.1749468
v -0.1168069 0.03231539 0.1806139
v -0.1117931 0.0387832 0.1749468
v -0.1179024 0.04437639 0.1806139
v -0.1168069 0.03231539 0.1806139
v -0.1229162 0.03572867 0.1806139
v -0.1168069 0.03231539 0.1806139
v -0.1179024 0.04437639 0.1806139
v -0.1117931 0.0387832 0.1806139
v -0.1229162 0.007409615 -0.1806139
v -0.1229162 0.03572867 0.1806139
v -0.1229162 0.007409615 0.1806139
v -0.1229162 0.03572867 -0.1806139
v -0.1168069 0.011135 -0.1806139
v -0.1229162 0.03572867 -0.1806139
v -0.1229162 0.007409615 -0.1806139
v -0.1168069 0.03231539 -0.1806139
v -0.1168069 0.011135 -0.1749468
v -0.1168069 0.03231539 -0.1806139
v -0.1168069 0.011135 -0.1806139
v -0.1168069 0.03231539 -0.1749468
v -0.1168069 0.03231539 0.1806139
v -0.1168069 0.011135 0.1749468
v -0.1168069 0.011135 0.1806139
v -0.1168069 0.03231539 0.1749468
v -0.1168069 0.03231539 0.1806139
v -0.1229162 0.007409615 0.1806139
v -0.1229162 0.03572867 0.1806139
v -0.1168069 0.011135 0.1806139
vt 0.001872241 0
vt 0.2775614 0.485263
vt 0.2777317 0
vt 0.001872241 0.1667008
vt 0.001872241 0.8038254
vt 0.2777318 0.9983829
vt 0.001872241 0.9983829
vt 1 0.1667021
vt 0.7325385 0
vt 0.7327037 0.485263
vt 1 0
vt 1 0.8038254
vt 1 0.9983829
vt 0.7325385 0.9983829
vt 0.2777317 0
vt 0.7327037 0.485263
vt 0.7325385 0
vt 0.2775614 0.485263
vt 0.2775614 0.485263
vt 0.7325385 0.9983829
vt 0.7327037 0.485263
vt 0.2777318 0.9983829
vt 0.4519961 0.02955773
vt 0.8131264 0.9705929
vt 0.8131264 0.02955815
vt 0.4519958 0.9705926
vt 0.3811225 0.9705926
vt 0.01999201 0.02955768
vt 0.01999176 0.9705922
vt 0.3811226 0.02955772
vt 0.3811225 0.9705926
vt 0.3945388 0.02955773
vt 0.3811226 0.02955772
vt 0.3945387 0.9705926
vt 0.3811226 0.02955772
vt 0.01999201 0.01498676
vt 0.01999201 0.02955768
vt 0.3719613 0.01498699
vt 0.8131264 0.02955815
vt 0.4611574 0.014987
vt 0.4519961 0.02955773
vt 0.8131264 0.01498743
vt 0.3940313 0.0149785
vt 0.3811226 0.02955772
vt 0.3945388 0.02955773
vt 0.3811226 0.02955772
vt 0.3940313 0.0149785
vt 0.3829351 0.0149785
vt 0.4519958 0.9705926
vt 0.8131264 0.9851635
vt 0.8131264 0.9705929
vt 0.4611572 0.9851632
vt 0.01999176 0.9705922
vt 0.3719612 0.9851632
vt 0.3811225 0.9705926
vt 0.01999176 0.9851632
vt 0.3811225 0.9705926
vt 0.3940314 0.9845569
vt 0.3945387 0.9705926
vt 0.3940314 0.9845569
vt 0.3811225 0.9705926
vt 0.382935 0.9845569
vt 0.01999201 0.02955768
vt 0.01160427 0.9705926
vt 0.01999176 0.9705922
vt 0.01160451 0.02955768
vt 0.8131264 0.9705929
vt 0.8215138 0.02955815
vt 0.8131264 0.02955815
vt 0.8215138 0.9705929
vt 0.3719613 0.01498699
vt 0.03119584 0.0002233749
vt 0.01999201 0.01498676
vt 0.3719613 0.0002234047
vt 0.8131264 0.01498743
vt 0.4611574 0.0002234196
vt 0.4611574 0.014987
vt 0.8019223 0.0002234504
vt 0.3940313 0.0149785
vt 0.3841254 0.0002877405
vt 0.3829351 0.0149785
vt 0.3952218 0.0002877405
vt 0.4611572 0.9851632
vt 0.8019221 0.9999268
vt 0.8131264 0.9851635
vt 0.4611574 0.9999267
vt 0.01999176 0.9851632
vt 0.3719612 0.9999267
vt 0.3719612 0.9851632
vt 0.03119584 0.9999267
vt 0.382935 0.9845569
vt 0.3952217 0.9996212
vt 0.3940314 0.9845569
vt 0.3841253 0.9996212
vt 0.01160451 0.02955768
vt 0.0004001884 0.9558291
vt 0.01160427 0.9705926
vt 0.0004004301 0.04432107
vt 0.8215138 0.9705929
vt 0.8327181 0.04432173
vt 0.8215138 0.02955815
vt 0.8327179 0.9558293
vt 0.4370059 0.9705926
vt 0.4519961 0.02955773
vt 0.4370059 0.02955773
vt 0.4519958 0.9705926
vt 0.4371727 0.9845569
vt 0.4519958 0.9705926
vt 0.4370059 0.9705926
vt 0.4519958 0.9705926
vt 0.4371727 0.9845569
vt 0.4493349 0.9845569
vt 0.4360373 0.9996212
vt 0.4493349 0.9845569
vt 0.4371727 0.9845569
vt 0.4481995 0.9996212
vt 0.4493349 0.0149785
vt 0.4360375 0.0002877405
vt 0.437173 0.0149785
vt 0.4481995 0.0002877405
vt 0.4519961 0.02955773
vt 0.437173 0.0149785
vt 0.4370059 0.02955773
vt 0.437173 0.0149785
vt 0.4519961 0.02955773
vt 0.4493349 0.0149785
vt 0.3945387 0.9705926
vt 0.4370059 0.02955773
vt 0.3945388 0.02955773
vt 0.4370059 0.9705926
vt 0.4001252 0.9845569
vt 0.4370059 0.9705926
vt 0.3945387 0.9705926
vt 0.4318872 0.9845569
vt 0.4001252 0.9996212
vt 0.4318872 0.9845569
vt 0.4001252 0.9845569
vt 0.4318872 0.9996212
vt 0.4318873 0.0149785
vt 0.4001254 0.0002877405
vt 0.4001254 0.0149785
vt 0.4318873 0.0002877405
vt 0.4318873 0.0149785
vt 0.3945388 0.02955773
vt 0.4370059 0.02955773
vt 0.4001254 0.0149785
vn 0 0 1
vn 0 0 1
vn 0 0 1
vn 0 0 1
vn 0 0 1
vn 0 0 1
vn 0 0 1
vn 0 0 -1
vn 0 0 -1
vn 0 0 -1
vn 0 0 -1
vn 0 0 -1
vn 0 0 -1
vn 0 0 -1
vn 0.9775637 -0.2106399 0
vn 0.9775637 -0.2106399 0
vn 0.9775637 -0.2106399 0
vn 0.9775637 -0.2106399 0
vn 0.9798625 0.1996733 0
vn 0.9798625 0.1996733 0
vn 0.9798625 0.1996734 0
vn 0.9798625 0.1996734 0
vn 0 1 0
vn 0 1 0
vn 0 1 0
vn 0 1 0
vn 0 -1 0
vn 0 -1 0
vn 0 -1 0
vn 0 -1 0
vn -0.8282115 -0.5604154 0
vn -0.8282115 -0.5604154 0
vn -0.8282115 -0.5604154 0
vn -0.8282115 -0.5604154 0
vn 0 0 1
vn 0 0 1
vn 0 0 1
vn 0 0 1
vn 0 0 1
vn 0 0 1
vn 0 0 1
vn 0 0 1
vn 0 0 1
vn 0 0 1
vn 0 0 1
vn 0 0 1
vn 0 0 1
vn 0 0 1
vn 0 0 -1
vn 0 0 -1
vn 0 0 -1
vn 0 0 -1
vn 0 0 -1
vn 0 0 -1
vn 0 0 -1
vn 0 0 -1
vn 0 0 -1
vn 0 0 -1
vn 0 0 -1
vn 0 0 -1
vn 0 0 -1
vn 0 0 -1
vn 1 0 0
vn 1 0 0
vn 1 0 0
vn 1 0 0
vn 1 0 0
vn 1 0 0
vn 1 0 0
vn 1 0 0
vn 0 1 0
vn 0 1 0
vn 0 1 0
vn 0 1 0
vn 0 -1 0
vn 0 -1 0
vn 0 -1 0
vn 0 -1 0
vn 0.7415516 0.6708958 0
vn 0.7415516 0.6708957 0
vn 0.7415516 0.6708957 0
vn 0.7415516 0.6708957 0
vn 0 -1 0
vn 0 -1 0
vn 0 -1 0
vn 0 -1 0
vn 0 1 0
vn 0 1 0
vn 0 1 0
vn 0 1 0
vn 0.7415514 0.6708961 0
vn 0.7415514 0.6708962 0
vn 0.7415514 0.6708962 0
vn 0.7415514 0.6708962 0
vn 0 1 0
vn 0 1 0
vn 0 1 0
vn 0 1 0
vn 0 -1 0
vn 0 -1 0
vn 0 -1 0
vn 0 -1 0
vn -0.8651139 0.5015754 0
vn -0.8651139 0.5015754 0
vn -0.8651139 0.5015754 0
vn -0.8651139 0.5015754 0
vn 0 0 -1
vn 0 0 -1
vn 0 0 -1
vn 0 0 -1
vn 0 0 -1
vn 0 0 -1
vn 0.7903429 -0.6126646 0
vn 0.7903429 -0.6126647 0
vn 0.7903429 -0.6126647 0
vn 0.7903429 -0.6126647 0
vn 0.7903429 -0.6126647 0
vn 0.7903429 -0.6126646 0
vn 0.7903429 -0.6126647 0
vn 0.7903429 -0.6126647 0
vn 0 0 1
vn 0 0 1
vn 0 0 1
vn 0 0 1
vn 0 0 1
vn 0 0 1
vn -1 0 0
vn -1 0 0
vn -1 0 0
vn -1 0 0
vn 0 0 -1
vn 0 0 -1
vn 0 0 -1
vn 0 0 -1
vn 1 0 0
vn 1 0 0
vn 1 0 0
vn 1 0 0
vn 1 0 0
vn 1 0 0
vn 1 0 0
vn 1 0 0
vn 0 0 1
vn 0 0 1
vn 0 0 1
vn 0 0 1
g OBJ_BookHardcover_0
f 3/3/3 2/2/2 1/1/1
f 4/4/4 1/1/1 2/2/2
f 2/2/2 5/5/5 4/4/4
f 2/2/2 6/6/6 5/5/5
f 7/7/7 5/5/5 6/6/6
f 10/10/10 9/9/9 8/8/8
f 11/11/11 8/8/8 9/9/9
f 10/10/10 8/8/8 12/12/12
f 12/12/12 13/13/13 10/10/10
f 14/14/14 10/10/10 13/13/13
f 17/17/17 16/16/16 15/15/15
f 18/18/18 15/15/15 16/16/16
f 21/21/21 20/20/20 19/19/19
f 22/22/22 19/19/19 20/20/20
g OBJ_BookHardcover_1
f 25/25/25 24/24/24 23/23/23
f 26/26/26 23/23/23 24/24/24
f 29/29/29 28/28/28 27/27/27
f 30/30/30 27/27/27 28/28/28
f 33/33/33 32/32/32 31/31/31
f 34/34/34 31/31/31 32/32/32
f 37/37/37 36/36/36 35/35/35
f 38/38/38 35/35/35 36/36/36
f 41/41/41 40/40/40 39/39/39
f 42/42/42 39/39/39 40/40/40
f 45/45/45 44/44/44 43/43/43
f 48/48/48 47/47/47 46/46/46
f 51/51/51 50/50/50 49/49/49
f 52/52/52 49/49/49 50/50/50
f 55/55/55 54/54/54 53/53/53
f 56/56/56 53/53/53 54/54/54
f 59/59/59 58/58/58 57/57/57
f 62/62/62 61/61/61 60/60/60
f 65/65/65 64/64/64 63/63/63
f 66/66/66 63/63/63 64/64/64
f 69/69/69 68/68/68 67/67/67
f 70/70/70 67/67/67 68/68/68
f 73/73/73 72/72/72 71/71/71
f 74/74/74 71/71/71 72/72/72
f 77/77/77 76/76/76 75/75/75
f 78/78/78 75/75/75 76/76/76
f 81/81/81 80/80/80 79/79/79
f 82/82/82 79/79/79 80/80/80
f 85/85/85 84/84/84 83/83/83
f 86/86/86 83/83/83 84/84/84
f 89/89/89 88/88/88 87/87/87
f 90/90/90 87/87/87 88/88/88
f 93/93/93 92/92/92 91/91/91
f 94/94/94 91/91/91 92/92/92
f 97/97/97 96/96/96 95/95/95
f 98/98/98 95/95/95 96/96/96
f 101/101/101 100/100/100 99/99/99
f 102/102/102 99/99/99 100/100/100
f 105/105/105 104/104/104 103/103/103
f 106/106/106 103/103/103 104/104/104
f 109/109/109 108/108/108 107/107/107
f 112/112/112 111/111/111 110/110/110
f 115/115/115 114/114/114 113/113/113
f 116/116/116 113/113/113 114/114/114
f 119/119/119 118/118/118 117/117/117
f 120/120/120 117/117/117 118/118/118
f 123/123/123 122/122/122 121/121/121
f 126/126/126 125/125/125 124/124/124
f 129/129/129 128/128/128 127/127/127
f 130/130/130 127/127/127 128/128/128
f 133/133/133 132/132/132 131/131/131
f 134/134/134 131/131/131 132/132/132
f 137/137/137 136/136/136 135/135/135
f 138/138/138 135/135/135 136/136/136
f 141/141/141 140/140/140 139/139/139
f 142/142/142 139/139/139 140/140/140
f 145/145/145 144/144/144 143/143/143
f 146/146/146 143/143/143 144/144/144
